<?xml version="1.0" standalone="no"?>
<!DOCTYPE svg PUBLIC "-//W3C//DTD SVG 20010904//EN"
 "http://www.w3.org/TR/2001/REC-SVG-20010904/DTD/svg10.dtd">
<svg version="1.0" xmlns="http://www.w3.org/2000/svg"
 width="732.000000pt" height="1280.000000pt" viewBox="0 0 732.000000 1280.000000"
 preserveAspectRatio="xMidYMid meet">
<metadata>
Created by potrace 1.15, written by Peter Selinger 2001-2017
</metadata>
<g transform="translate(0.000000,1280.000000) scale(0.100000,-0.100000)"
fill="#3f51b5" stroke="none">
<path d="M3480 12794 c-25 -2 -101 -9 -170 -14 -1218 -106 -2341 -869 -2904
-1974 -238 -466 -363 -929 -396 -1469 -72 -1160 578 -3181 1950 -6062 204
-426 693 -1400 938 -1865 314 -597 751 -1399 762 -1400 5 0 260 456 416 745
1552 2875 2655 5432 3054 7079 131 543 184 921 184 1316 0 569 -114 1067 -359
1577 -552 1148 -1661 1923 -2935 2053 -112 11 -465 21 -540 14z"/>
</g>
</svg>
